<?xml version="1.0" encoding="UTF-8"?>
<svg version="1.1" xmlns="http://www.w3.org/2000/svg" width="512" height="512">
<path d="M0 0 C1.01790619 0.00215515 2.03581238 0.0043103 3.08456421 0.00653076 C17.69363523 0.05620146 32.02575853 0.30709809 46.375 3.3125 C47.34985352 3.51117676 48.32470703 3.70985352 49.32910156 3.91455078 C97.7109774 14.03517194 141.69928269 35.9516877 177.375 70.3125 C178.3640332 71.26068604 178.3640332 71.26068604 179.37304688 72.22802734 C188.86130305 81.37247479 197.6012044 90.66984009 205.375 101.3125 C206.23306152 102.46355017 207.09113451 103.61459177 207.94921875 104.765625 C213.98736829 112.95680614 219.34595521 121.47054105 224.375 130.3125 C224.73948242 130.94430176 225.10396484 131.57610352 225.47949219 132.22705078 C247.08534998 169.97532572 256.85198095 212.74189997 256.6875 255.9375 C256.68534485 256.95540619 256.6831897 257.97331238 256.68096924 259.02206421 C256.63129854 273.63113523 256.38040191 287.96325853 253.375 302.3125 C253.07698486 303.77478027 253.07698486 303.77478027 252.77294922 305.26660156 C242.65232806 353.6484774 220.7358123 397.63678269 186.375 433.3125 C185.74287598 433.97185547 185.11075195 434.63121094 184.45947266 435.31054688 C175.31502521 444.79880305 166.01765991 453.5387044 155.375 461.3125 C154.22394983 462.17056152 153.07290823 463.02863451 151.921875 463.88671875 C143.73224019 469.92427396 135.22961724 475.30707302 126.375 480.3125 C125.66778809 480.7146875 124.96057617 481.116875 124.23193359 481.53125 C101.09654164 494.5566741 75.92537591 503.30551461 49.9375 508.625 C49.21860596 508.77235596 48.49971191 508.91971191 47.7590332 509.0715332 C33.08339502 511.86090125 18.55831162 512.66142619 3.64770508 512.62817383 C0.70811513 512.6250221 -2.2304558 512.64854926 -5.16992188 512.67382812 C-18.54306192 512.71848737 -31.43916711 511.51301542 -44.625 509.3125 C-46.33055054 509.03031616 -46.33055054 509.03031616 -48.07055664 508.74243164 C-91.33802759 500.97044532 -132.38793216 480.98345309 -165.625 452.3125 C-166.37007813 451.67828125 -167.11515625 451.0440625 -167.8828125 450.390625 C-181.38779833 438.57948485 -194.05918743 425.82889772 -204.625 411.3125 C-205.48149066 410.16255169 -206.33826433 409.01281411 -207.1953125 407.86328125 C-213.23534209 399.67315742 -218.61867614 391.16870382 -223.625 382.3125 C-224.0271875 381.60528809 -224.429375 380.89807617 -224.84375 380.16943359 C-237.8691741 357.03404164 -246.61801461 331.86287591 -251.9375 305.875 C-252.08485596 305.15610596 -252.23221191 304.43721191 -252.3840332 303.6965332 C-255.35789088 288.05024391 -255.99800362 272.57681954 -255.9375 256.6875 C-255.93534485 255.66959381 -255.9331897 254.65168762 -255.93096924 253.60293579 C-255.88129854 238.99386477 -255.63040191 224.66174147 -252.625 210.3125 C-252.42632324 209.33764648 -252.22764648 208.36279297 -252.02294922 207.35839844 C-241.90232806 158.9765226 -219.9858123 114.98821731 -185.625 79.3125 C-184.99287598 78.65314453 -184.36075195 77.99378906 -183.70947266 77.31445312 C-174.56502521 67.82619695 -165.26765991 59.0862956 -154.625 51.3125 C-153.47394983 50.45443848 -152.32290823 49.59636549 -151.171875 48.73828125 C-142.98224019 42.70072604 -134.47961724 37.31792698 -125.625 32.3125 C-124.91778809 31.9103125 -124.21057617 31.508125 -123.48193359 31.09375 C-100.34654164 18.0683259 -75.17537591 9.31948539 -49.1875 4 C-48.46860596 3.85264404 -47.74971191 3.70528809 -47.0090332 3.5534668 C-31.36274391 0.57960912 -15.88931954 -0.06050362 0 0 Z " fill="#EF7A2B" transform="translate(255.625,-0.3125)"/>
<path d="M0 0 C2.45489744 -0.01057535 4.90978035 -0.02547478 7.36462402 -0.04486084 C10.85328059 -0.06873462 14.34129361 -0.07100955 17.83001709 -0.06674194 C18.86530548 -0.07585602 19.90059387 -0.08497009 20.96725464 -0.09436035 C39.53628106 0.02084597 55.96468933 8.45490362 69.35345459 20.89028931 C84.09624313 35.9759334 87.89734014 54.4374099 87.83538818 74.70523071 C87.83002944 76.79173041 87.83535813 78.8780149 87.84173584 80.96450806 C87.84465312 87.48288506 87.7513768 93.85229219 86.70501709 100.29653931 C87.59962646 100.33392212 88.49423584 100.37130493 89.41595459 100.40982056 C103.76367952 101.18992074 116.02330386 104.51142099 126.17376709 115.30825806 C134.86701697 126.59617691 135.83724578 139.42667177 135.94329834 153.11294556 C135.95137009 154.12767441 135.95944183 155.14240326 135.96775818 156.18788147 C135.98151666 158.32670425 135.99227518 160.46554822 136.00018311 162.60440063 C136.0116727 164.76169408 136.03207622 166.91895977 136.06170654 169.07608032 C136.41530118 194.89639053 131.34182192 218.26443922 112.75970459 237.39810181 C104.73359654 245.25797332 95.27288671 250.5640577 84.70501709 254.29653931 C83.78591553 254.62782837 82.86681396 254.95911743 81.91986084 255.30044556 C73.68038805 257.85338062 66.13061142 258.59050232 57.5067749 258.57119751 C55.72196213 258.57886391 55.72196213 258.57886391 53.90109253 258.58668518 C50.66113814 258.59814393 47.42134371 258.60066413 44.18137455 258.59812188 C41.46318986 258.59704531 38.74502825 258.60195319 36.02684855 258.6067273 C29.60510041 258.61779129 23.18341076 258.61827815 16.76165771 258.61221313 C10.16957305 258.60618222 3.5777023 258.61846895 -3.01434588 258.6397832 C-8.70217062 258.65748752 -14.38992783 258.66338656 -20.07777905 258.66014546 C-23.46234033 258.65834569 -26.84674915 258.66083591 -30.2312851 258.67486 C-34.01407508 258.68729134 -37.79637951 258.68039178 -41.5791626 258.66885376 C-42.67777618 258.6764975 -43.77638977 258.68414124 -44.90829468 258.6920166 C-65.05986327 258.55716943 -84.85143701 251.32298311 -99.39263916 237.26919556 C-109.31683177 226.69486316 -113.76755334 215.05642987 -117.29498291 201.29653931 C-117.47681122 200.70240234 -117.65863953 200.10826538 -117.84597778 199.49612427 C-118.46837961 196.44710405 -118.42237728 193.52731749 -118.42437744 190.41567993 C-118.42610144 189.72709963 -118.42782543 189.03851933 -118.42960167 188.32907295 C-118.43394761 186.03695441 -118.43099272 183.74490884 -118.42779541 181.45278931 C-118.42889562 179.82790095 -118.43032662 178.20301279 -118.43206787 176.578125 C-118.43497848 172.21948599 -118.43066374 167.86088454 -118.42395782 163.50225067 C-118.41999002 160.80137635 -118.41747395 158.10050398 -118.4152832 155.39962769 C-118.3943526 132.98847874 -118.30327081 110.57978672 -117.91998291 88.17153931 C-117.90469543 87.12296753 -117.88940796 86.07439575 -117.87365723 84.99404907 C-117.50291308 60.73995752 -114.55601854 38.85679267 -97.29498291 20.29653931 C-82.64525207 6.20829641 -65.13629879 2.10917169 -45.41998291 1.10903931 C-44.35312256 1.05074448 -44.35312256 1.05074448 -43.26470947 0.99127197 C-28.85424113 0.22491204 -14.42845848 0.06200734 0 0 Z " fill="#FEFEFE" transform="translate(258.29498291015625,125.70346069335938)"/>
<path d="M0 0 C1.05945831 -0.00365067 2.11891663 -0.00730133 3.21047974 -0.01106262 C6.70054328 -0.01914513 10.1901391 -0.0055748 13.68017578 0.0090332 C16.11483764 0.00955216 18.54949993 0.00903308 20.98416138 0.00752258 C26.08325468 0.00761221 31.18218957 0.01802087 36.28125 0.03613281 C42.80334574 0.05879521 49.32520965 0.05936727 55.84733391 0.05261517 C60.87462406 0.04926613 65.9018618 0.05592331 70.929142 0.0657444 C73.33319957 0.06958237 75.73726298 0.07075046 78.14132309 0.06915855 C81.50838989 0.06878583 84.87516475 0.08146695 88.2421875 0.09765625 C89.72002716 0.09394012 89.72002716 0.09394012 91.22772217 0.09014893 C100.58545433 0.16160487 107.67300398 0.95878569 114.59033203 7.55981445 C116.52917496 9.67657473 117.99587921 11.78929578 119.25048828 14.37231445 C119.58048828 15.03231445 119.91048828 15.69231445 120.25048828 16.37231445 C121.1803733 24.47055361 120.64058396 30.55760497 115.96533203 37.3449707 C112.12272997 41.88781915 106.82040085 44.98322742 100.86439133 45.63237667 C100.03264011 45.63702718 99.2008889 45.64167768 98.34393311 45.64646912 C97.38243851 45.65644424 96.42094391 45.66641937 95.43031311 45.67669678 C94.38709396 45.67736145 93.34387482 45.67802612 92.26904297 45.67871094 C90.6071418 45.69119621 90.6071418 45.69119621 88.91166687 45.70393372 C85.24852992 45.72803091 81.58557109 45.73680602 77.92236328 45.7434082 C75.37274116 45.75237535 72.82311958 45.76149722 70.27349854 45.77076721 C64.92710766 45.78725946 59.58078339 45.79499057 54.234375 45.79785156 C48.07159658 45.80148265 41.90931744 45.8313513 35.74669147 45.87325615 C29.80133019 45.91225398 23.85611749 45.92344655 17.91062164 45.92457771 C15.38930811 45.92877718 12.86799405 45.94120032 10.34676361 45.96209526 C6.81390824 45.98904119 3.28241842 45.98417293 -0.25048828 45.97167969 C-1.2856105 45.98651398 -2.32073273 46.00134827 -3.38722229 46.01663208 C-10.92779165 45.94094808 -16.73492773 44.10995549 -22.33716202 38.89418697 C-27.80922951 32.72476741 -28.24914618 26.79827209 -28.13232422 18.8293457 C-27.44891203 12.65771522 -24.70159738 9.27302944 -20.37451172 5.05981445 C-13.45200079 0.60962885 -8.09583762 -0.06255335 0 0 Z " fill="#EF7B2D" transform="translate(220.74951171875,279.627685546875)"/>
<path d="M0 0 C1.53309814 -0.00461494 1.53309814 -0.00461494 3.09716797 -0.00932312 C4.19818848 -0.0021376 5.29920898 0.00504791 6.43359375 0.01245117 C7.57586426 0.01290939 8.71813477 0.01336761 9.89501953 0.01383972 C12.31592851 0.01686173 14.73683555 0.02474648 17.15771484 0.03710938 C20.82917327 0.05521321 24.50037685 0.05761995 28.171875 0.05737305 C30.52995006 0.06229472 32.88802343 0.06812585 35.24609375 0.07495117 C36.33092041 0.076064 37.41574707 0.07717682 38.53344727 0.07832336 C62.47060823 0.22414411 62.47060823 0.22414411 69.36328125 6.62963867 C74.59776224 12.53004476 76.47444318 17.72204477 76.2109375 25.50073242 C75.29946335 32.85538594 71.45804311 37.10497116 65.96875 41.79760742 C60.38506975 45.6448359 55.2624361 45.5230868 48.69921875 45.47338867 C47.70339783 45.47293045 46.7075769 45.47247223 45.68157959 45.47200012 C43.57009696 45.46898113 41.45861649 45.46110538 39.34716797 45.44873047 C36.17406974 45.4307206 33.00126852 45.4282194 29.828125 45.4284668 C20.61166289 45.41390804 11.39510912 45.33209338 2.1875 44.90307617 C0.89013916 44.84385986 -0.40722168 44.78464355 -1.74389648 44.72363281 C-8.30777479 43.79148161 -12.14626781 40.32723213 -16.56640625 35.68041992 C-20.73424596 29.17858998 -21.01573231 22.80379776 -20.12890625 15.24291992 C-17.77625049 8.91195356 -12.97101856 4.54779081 -7.26586914 1.12528992 C-4.70245949 0.06683646 -2.77073331 -0.00440436 0 0 Z " fill="#EF7B2C" transform="translate(219.12890625,178.757080078125)"/>
</svg>
